<?xml version="1.0" encoding="utf-8"?>
<!-- Generator: Adobe Illustrator 15.0.2, SVG Export Plug-In . SVG Version: 6.00 Build 0)  -->
<!DOCTYPE svg PUBLIC "-//W3C//DTD SVG 1.1//EN" "http://www.w3.org/Graphics/SVG/1.1/DTD/svg11.dtd">
<svg version="1.1" id="Layer_1" xmlns="http://www.w3.org/2000/svg" xmlns:xlink="http://www.w3.org/1999/xlink" x="0px" y="0px"
	 width="940px" height="351.5px" viewBox="0 0 940 351.5" enable-background="new 0 0 940 351.5" xml:space="preserve">
<g>
	
		<image overflow="visible" enable-background="new    " width="492" height="671" xlink:href="3F2B4E22.png"  transform="matrix(0.2361 0 0 0.2389 17.9133 36.1116)">
	</image>
	<g>
		<path fill="#FEC00F" d="M107.215,153.412c0,10.653-5.413,15.979-16.234,15.979H38.566c-10.994,0-16.49-5.325-16.49-15.979V56.255
			c0-10.653,5.496-15.98,16.49-15.98H90.98c10.822,0,16.234,5.328,16.234,15.98L107.215,153.412L107.215,153.412z M78.579,145.102
			v-80.41H50.838v80.41H78.579z"/>
		<path fill="none" stroke="#000000" stroke-miterlimit="10" d="M107.215,153.412c0,10.653-5.413,15.979-16.234,15.979H38.566
			c-10.994,0-16.49-5.325-16.49-15.979V56.255c0-10.653,5.496-15.98,16.49-15.98H90.98c10.822,0,16.234,5.328,16.234,15.98
			L107.215,153.412L107.215,153.412z M78.579,145.102v-80.41H50.838v80.41H78.579z"/>
	</g>
</g>
<g>
	
		<image overflow="visible" enable-background="new    " width="392" height="817" xlink:href="3F2B4E26.png"  transform="matrix(0.2388 0 0 0.2391 117.3713 1.0862)">
	</image>
	<g>
		<path fill="#FEC00F" d="M184.045,169.39h-32.471c-10.824,0-16.236-5.325-16.236-15.979V65.202h-13.806V40.274h13.806V5.248h29.147
			v35.026h18.792v24.929h-18.792v79.261h19.56V169.39L184.045,169.39z"/>
		<path fill="none" stroke="#000000" stroke-miterlimit="10" d="M184.045,169.39h-32.471c-10.824,0-16.236-5.325-16.236-15.979
			V65.202h-13.806V40.274h13.806V5.248h29.147v35.026h18.792v24.929h-18.792v79.261h19.56V169.39L184.045,169.39z"/>
	</g>
</g>
<g>
	
		<image overflow="visible" enable-background="new    " width="475" height="671" xlink:href="3F2B4E21.png"  transform="matrix(0.2375 0 0 0.2389 195.6086 36.1125)">
	</image>
	<g>
		<path fill="#FEC00F" d="M281.458,153.412c0,10.653-5.413,15.979-16.235,15.979h-49.218c-10.824,0-16.234-5.325-16.234-15.979
			V125.67h27.996v21.732h25.695v-20.453l-44.87-26.464c-5.881-3.493-8.821-8.18-8.821-14.062V56.255
			c0-10.653,5.497-15.98,16.49-15.98h48.707c10.821,0,16.234,5.328,16.234,15.98v25.951h-27.74V62.262h-25.695v18.665l44.744,26.207
			c5.964,3.41,8.948,8.182,8.948,14.317L281.458,153.412L281.458,153.412z"/>
		<path fill="none" stroke="#000000" stroke-miterlimit="10" d="M281.458,153.412c0,10.653-5.413,15.979-16.235,15.979h-49.218
			c-10.824,0-16.234-5.325-16.234-15.979V125.67h27.996v21.732h25.695v-20.453l-44.87-26.464c-5.881-3.493-8.821-8.18-8.821-14.062
			V56.255c0-10.653,5.497-15.98,16.49-15.98h48.707c10.821,0,16.234,5.328,16.234,15.98v25.951h-27.74V62.262h-25.695v18.665
			l44.744,26.207c5.964,3.41,8.948,8.182,8.948,14.317L281.458,153.412L281.458,153.412z"/>
	</g>
</g>
<g>
	
		<image overflow="visible" enable-background="new    " width="429" height="704" xlink:href="3F2B4E23.png"  transform="matrix(0.2366 0 0 0.239 129.6497 189.6536)">
	</image>
	<g>
		<path fill="#FEC00F" d="M133.811,331v-16.622l44.004-77.381v-19.412h-16.416v24.161h-26.26v-32.52
			c0-9.795,5.648-15.413,15.496-15.413h38.11c9.849,0,15.497,5.618,15.497,15.413v25.157c0,4.711-1.583,9.894-4.705,15.403
			l-32.604,56.941h37.144V331H133.811z"/>
		<path fill="none" stroke="#000000" stroke-miterlimit="10" d="M133.811,331v-16.622l44.004-77.381v-19.412h-16.416v24.161h-26.26
			v-32.52c0-9.795,5.648-15.413,15.496-15.413h38.11c9.849,0,15.497,5.618,15.497,15.413v25.157c0,4.711-1.583,9.894-4.705,15.403
			l-32.604,56.941h37.144V331H133.811z"/>
	</g>
</g>
<g>
	
		<image overflow="visible" enable-background="new    " width="429" height="704" xlink:href="3F2B4E20.png"  transform="matrix(0.2383 0 0 0.239 210.6174 189.6536)">
	</image>
	<g>
		<path fill="#FEC00F" d="M229.942,331c-9.638,0-15.164-5.648-15.164-15.496v-106.11c0-9.9,5.618-15.579,15.413-15.579h40.27
			c9.743,0,15.331,5.679,15.331,15.579v106.11c0,9.848-5.588,15.496-15.331,15.496H229.942z M259.53,307.063v-89.312h-18.408v89.312
			H259.53z"/>
		<path fill="none" stroke="#000000" stroke-miterlimit="10" d="M229.942,331c-9.638,0-15.164-5.648-15.164-15.496v-106.11
			c0-9.9,5.618-15.579,15.413-15.579h40.27c9.743,0,15.331,5.679,15.331,15.579v106.11c0,9.848-5.588,15.496-15.331,15.496H229.942z
			 M259.53,307.063v-89.312h-18.408v89.312H259.53z"/>
	</g>
</g>
<g>
	
		<image overflow="visible" enable-background="new    " width="275" height="704" xlink:href="3F2B4E2E.png"  transform="matrix(0.2365 0 0 0.239 290.7542 189.6536)">
	</image>
	<g>
		<polygon fill="#FEC00F" points="302.388,331 302.388,239.338 294.915,239.338 294.915,232.639 305.842,193.814 328.732,193.814 
			328.732,331 		"/>
		<polygon fill="none" stroke="#000000" stroke-miterlimit="10" points="302.388,331 302.388,239.338 294.915,239.338 
			294.915,232.639 305.842,193.814 328.732,193.814 328.732,331 		"/>
	</g>
</g>
<g>
	
		<image overflow="visible" enable-background="new    " width="425" height="704" xlink:href="3F2B4E25.png"  transform="matrix(0.2389 0 0 0.239 335.4387 189.6536)">
	</image>
	<g>
		<path fill="#FEC00F" d="M339.6,331v-16.622l44.004-77.381v-19.412H367.19v24.161h-26.262v-32.52
			c0-9.795,5.65-15.413,15.498-15.413h38.11c9.848,0,15.497,5.618,15.497,15.413v25.157c0,4.71-1.582,9.893-4.706,15.403
			l-32.604,56.941h37.145V331H339.6z"/>
		<path fill="none" stroke="#000000" stroke-miterlimit="10" d="M339.6,331v-16.622l44.004-77.381v-19.412H367.19v24.161h-26.262
			v-32.52c0-9.795,5.65-15.413,15.498-15.413h38.11c9.848,0,15.497,5.618,15.497,15.413v25.157c0,4.71-1.582,9.893-4.706,15.403
			l-32.604,56.941h37.145V331H339.6z"/>
	</g>
</g>
<g enable-background="new    ">
	<path d="M526.53,125.025c0,5.482-2.723,8.223-8.165,8.223h-27.083c-5.404,0-8.107-2.74-8.107-8.223v-21.447h13.455v18.343h16.445
		v-17.652l-26.967-25.53c-1.955-1.878-2.934-4.273-2.934-7.188V51.54c0-5.52,2.703-8.279,8.107-8.279h27.083
		c5.442,0,8.165,2.722,8.165,8.164V71.55h-13.455V54.588h-16.445v16.272l26.968,25.414c1.955,1.841,2.933,4.275,2.933,7.303V125.025
		z"/>
	<path d="M574.828,126.06c0,4.792-2.435,7.188-7.303,7.188h-23.574c-4.945,0-7.418-2.396-7.418-7.188V82.361
		c0-4.792,2.473-7.188,7.418-7.188h23.574c4.868,0,7.303,2.396,7.303,7.188V126.06z M561.949,122.323V86.156h-12.479v36.167H561.949
		z"/>
	<path d="M622.841,133.247h-13.11v-2.013c-8.893,1.572-13.877,2.357-14.949,2.357c-3.297,0-5.885-0.968-7.763-2.903
		s-2.817-4.571-2.817-7.906V86.845c0-4.715,1.686-7.992,5.061-9.832c2.452-1.38,6.17-2.07,11.154-2.07
		c1.111,0,2.721,0.039,4.83,0.115c2.107,0.077,3.603,0.115,4.484,0.115V43.261h13.11V133.247z M609.731,121.92V86.156h-8.107
		c-2.913,0-4.369,1.457-4.369,4.37v27.771c0,2.838,1.379,4.255,4.14,4.255C602.045,122.552,604.824,122.342,609.731,121.92z"/>
	<path d="M670.681,126.06c0,4.792-2.435,7.188-7.303,7.188h-23.575c-4.944,0-7.417-2.396-7.417-7.188V82.361
		c0-4.792,2.473-7.188,7.417-7.188h23.575c4.868,0,7.303,2.396,7.303,7.188V126.06z M657.801,122.323V86.156h-12.478v36.167H657.801
		z"/>
	<path d="M718.922,121.574c0,3.643-1.092,6.498-3.277,8.568c-2.185,2.069-5.098,3.104-8.74,3.104h-26.736V43.261h13.167V77.3
		c3.066-0.46,6.133-0.938,9.2-1.438c3.871-0.612,6.938-0.92,9.199-0.92c4.792,0,7.188,2.357,7.188,7.072V121.574z M705.698,117.952
		V86.156l-12.362,0.229v35.938h8.165C704.298,122.323,705.698,120.866,705.698,117.952z"/>
	<path d="M767.108,133.247h-13.225V86.156l-12.363,0.229v46.862h-13.168V75.173h13.168V77.3c3.066-0.497,6.113-0.978,9.143-1.438
		c3.756-0.612,6.842-0.92,9.258-0.92c4.791,0,7.188,2.357,7.188,7.072V133.247z"/>
	<path d="M814.084,126.06c0,4.792-2.473,7.188-7.418,7.188h-22.711c-4.945,0-7.418-2.396-7.418-7.188V82.361
		c0-4.792,2.473-7.188,7.418-7.188h22.711c4.945,0,7.418,2.396,7.418,7.188v21.332l-3.623,3.622h-21.332v16.272h12.363v-9.66h12.592
		V126.06z M801.492,98.747V84.832h-12.363v13.915H801.492z"/>
</g>
<g enable-background="new    ">
	<path d="M507.784,234.948H493.18c-4.869,0-7.303-2.396-7.303-7.188v-39.675h-6.21v-11.212h6.21v-15.755h13.109v15.755h8.453v11.212
		h-8.453v35.649h8.798V234.948z"/>
	<path d="M552.634,227.76c0,4.792-2.473,7.188-7.417,7.188h-22.713c-4.945,0-7.418-2.396-7.418-7.188v-43.699
		c0-4.792,2.473-7.188,7.418-7.188h22.713c4.944,0,7.417,2.396,7.417,7.188v21.332l-3.622,3.622h-21.333v16.272h12.362v-9.66h12.593
		V227.76z M540.041,200.448v-13.915h-12.362v13.915H540.041z"/>
	<path d="M600.934,234.948h-13.225v-47.092l-12.363,0.229v46.862h-13.167v-89.986h13.167V179c3.066-0.46,6.133-0.938,9.2-1.438
		c3.872-0.612,6.938-0.92,9.2-0.92c4.791,0,7.188,2.357,7.188,7.072V234.948z"/>
	<path d="M649.118,234.948h-13.226v-47.092l-12.361,0.229v46.862h-13.168v-58.074h13.168V179c3.066-0.497,6.113-0.978,9.143-1.438
		c3.756-0.612,6.842-0.92,9.257-0.92c4.792,0,7.188,2.357,7.188,7.072V234.948z"/>
	<path d="M696.843,227.76c0,4.792-2.435,7.188-7.303,7.188h-23.575c-4.944,0-7.417-2.396-7.417-7.188v-43.699
		c0-4.792,2.473-7.188,7.417-7.188h23.575c4.868,0,7.303,2.396,7.303,7.188V227.76z M683.963,224.023v-36.167h-12.478v36.167
		H683.963z"/>
	<path d="M719.614,234.948h-12.938v-89.986h12.938V234.948z"/>
	<path d="M767.682,227.76c0,4.792-2.434,7.188-7.303,7.188h-23.574c-4.945,0-7.418-2.396-7.418-7.188v-43.699
		c0-4.792,2.473-7.188,7.418-7.188h23.574c4.869,0,7.303,2.396,7.303,7.188V227.76z M754.803,224.023v-36.167h-12.479v36.167
		H754.803z"/>
	<path d="M815.694,248.978c0,4.791-2.471,7.188-7.416,7.188h-22.885c-4.945,0-7.418-2.396-7.418-7.188v-9.315h12.707v6.958h11.902
		v-12.018h-13.512c-3.68,0-6.604-1.035-8.77-3.105c-2.166-2.069-3.248-4.925-3.248-8.567v-35.534c0-3.335,0.939-5.961,2.816-7.878
		c1.879-1.916,4.467-2.875,7.764-2.875c1.646,0,6.631,0.786,14.949,2.357v-2.127h13.109V248.978z M802.584,224.023v-35.707
		c-4.408-0.46-7.148-0.69-8.223-0.69c-2.836,0-4.254,1.4-4.254,4.197v27.83c0,2.914,1.455,4.37,4.369,4.37H802.584z"/>
	<path d="M838.637,168.535h-13.168v-13.569h13.168V168.535z M838.522,234.948h-12.938v-58.074h12.938V234.948z"/>
	<path d="M861.578,248.978c0,4.791-2.434,7.188-7.301,7.188h-13.973v-10.982h8.336v-68.31h12.938V248.978z M861.694,168.535h-13.166
		v-13.569h13.166V168.535z"/>
	<path d="M908.901,227.76c0,4.792-2.473,7.188-7.418,7.188h-22.711c-4.945,0-7.418-2.396-7.418-7.188v-43.699
		c0-4.792,2.473-7.188,7.418-7.188h22.711c4.945,0,7.418,2.396,7.418,7.188v21.332l-3.623,3.622h-21.332v16.272h12.363v-9.66h12.592
		V227.76z M896.309,200.448v-13.915h-12.363v13.915H896.309z"/>
</g>
<g enable-background="new    ">
	<path d="M496.112,270.237h-13.167v-13.569h13.167V270.237z M495.997,336.649H483.06v-58.074h12.938V336.649z"/>
	<path d="M544.527,336.649h-13.226v-47.092l-12.361,0.229v46.862h-13.168v-58.074h13.168v2.127c3.066-0.497,6.113-0.978,9.143-1.438
		c3.756-0.612,6.842-0.92,9.257-0.92c4.792,0,7.188,2.357,7.188,7.072V336.649z"/>
	<path d="M614.734,329.461c0,4.792-2.435,7.188-7.302,7.188h-22.138c-4.868,0-7.303-2.396-7.303-7.188v-12.478h12.593v9.775h11.557
		v-9.2l-20.182-11.902c-2.645-1.571-3.968-3.68-3.968-6.325v-13.569c0-4.792,2.473-7.188,7.417-7.188h21.908
		c4.867,0,7.303,2.396,7.303,7.188v11.672h-12.479v-8.97h-11.557v8.395l20.125,11.788c2.682,1.533,4.024,3.68,4.024,6.439V329.461z"
		/>
	<path d="M649.003,336.649h-14.604c-4.869,0-7.303-2.396-7.303-7.188v-39.675h-6.21v-11.212h6.21V262.82h13.109v15.755h8.453v11.212
		h-8.453v35.649h8.798V336.649z"/>
	<path d="M694.6,329.461c0,4.792-2.435,7.188-7.303,7.188h-23.574c-4.945,0-7.418-2.396-7.418-7.188v-43.699
		c0-4.792,2.473-7.188,7.418-7.188h23.574c4.868,0,7.303,2.396,7.303,7.188V329.461z M681.721,325.724v-36.167h-12.479v36.167
		H681.721z"/>
	<path d="M740.715,302.839h-13.053v-13.282l-10.407,0.229v46.862h-13.167v-58.074h13.167v2.127c2.722-0.497,5.424-0.996,8.107-1.495
		c3.258-0.574,5.979-0.862,8.165-0.862c4.791,0,7.188,2.357,7.188,7.072V302.839z"/>
	<path d="M761.53,270.237h-13.166v-13.569h13.166V270.237z M761.414,336.649h-12.938v-58.074h12.938V336.649z"/>
	<path d="M796.26,336.649h-14.605c-4.869,0-7.303-2.396-7.303-7.188v-39.675h-6.209v-11.212h6.209V262.82h13.109v15.755h8.453
		v11.212h-8.453v35.649h8.799V336.649z"/>
	<path d="M842.893,278.574l-14.836,58.189h-12.592l-14.836-58.189h13.514l7.646,38.18l7.648-38.18H842.893z"/>
	<path d="M886.936,329.461c0,4.792-2.471,7.188-7.416,7.188h-22.713c-4.945,0-7.418-2.396-7.418-7.188v-43.699
		c0-4.792,2.473-7.188,7.418-7.188h22.713c4.945,0,7.416,2.396,7.416,7.188v21.332l-3.621,3.622h-21.332v16.272h12.361v-9.66h12.592
		V329.461z M874.344,302.149v-13.915h-12.361v13.915H874.344z"/>
</g>
</svg>
